<svg xmlns:dc="http://purl.org/dc/elements/1.1/" xmlns:cc="http://creativecommons.org/ns#" xmlns:rdf="http://www.w3.org/1999/02/22-rdf-syntax-ns#" xmlns:svg="http://www.w3.org/2000/svg" xmlns="http://www.w3.org/2000/svg" xmlns:sodipodi="http://sodipodi.sourceforge.net/DTD/sodipodi-0.dtd" xmlns:inkscape="http://www.inkscape.org/namespaces/inkscape" version="1.1" x="0px" y="0px" viewBox="0 0 100 125">
    <g transform="translate(0,-952.36218)">
        <path d="m 18,1048.3622 c -1.1017,0 -1.9989,-1.0132 -2,-2 l 0,-88.00004 c 10e-5,-1.04717 0.9528,-1.9999 2,-2 l 50,0 c 0.522,0.004 1.0392,0.22253 1.4063,0.59375 l 14,14 c 0.3712,0.36707 0.5895,0.88421 0.5937,1.40625 l 0,74.00004 c -1e-4,1.0472 -0.9528,1.9999 -2,2 z m 2,-4 60,0 0,-70.00004 -12,0 c -1.2153,-0.002 -1.9872,-1.07171 -2,-2 l 0,-12 -46,0 z m 10,-13 c -1.1046,0 -2,-0.8954 -2,-2 0,-1.1046 0.8954,-2 2,-2 l 40,0 c 1.1046,0 2,0.8954 2,2 0,1.1046 -0.8954,2 -2,2 z m 0,-18 c -1.1046,0 -2,-0.8954 -2,-2 0,-1.1046 0.8954,-2 2,-2 l 40,0 c 1.1046,0 2,0.8954 2,2 0,1.1046 -0.8954,2 -2,2 z m 0,-18.00004 c -1.1046,0 -2,-0.8954 -2,-2 0,-1.1046 0.8954,-2 2,-2 l 40,0 c 1.1046,0 2,0.8954 2,2 0,1.1046 -0.8954,2 -2,2 z m 0,-18 c -1.1046,0 -2,-0.8954 -2,-2 0,-1.1046 0.8954,-2 2,-2 l 32,0 c 1.1046,0 2,0.8954 2,2 0,1.1046 -0.8954,2 -2,2 z m 40,-7 7.1563,0 L 70,963.20591 z" style="text-indent:0;text-transform:none;direction:ltr;block-progression:tb;baseline-shift:baseline;color:#000000;enable-background:accumulate;" fill="#000000" fill-opacity="1" stroke="none" marker="none" visibility="visible" display="inline" overflow="visible" />
    </g>
</svg>
