<svg xmlns:dc="http://purl.org/dc/elements/1.1/" xmlns:cc="http://creativecommons.org/ns#" xmlns:rdf="http://www.w3.org/1999/02/22-rdf-syntax-ns#" xmlns:svg="http://www.w3.org/2000/svg" xmlns="http://www.w3.org/2000/svg" xmlns:sodipodi="http://sodipodi.sourceforge.net/DTD/sodipodi-0.dtd" xmlns:inkscape="http://www.inkscape.org/namespaces/inkscape" version="1.1" x="0px" y="0px" viewBox="0 0 100 125">
    <g transform="translate(0,-952.36218)">
        <path style="color:#000000;enable-background:accumulate;" d="m 22.000002,958.36219 c -2.216,0 -4,1.784 -4,4 l 0,80.00001 c 0,2.216 1.784,4 4,4 l 55.999996,0 c 2.216,0 4,-1.784 4,-4 l 0,-80.00001 c 0,-2.216 -1.784,-4 -4,-4 z m 8,15 40,0 c 1.104596,0 1.999996,0.8954 1.999996,2 0,1.1046 -0.8954,2 -1.999996,2 l -40,0 c -1.1046,0 -2,-0.8954 -2,-2 0,-1.1046 0.8954,-2 2,-2 z m 0,18 40,0 c 1.104596,0 1.999996,0.8954 1.999996,2 0,1.1046 -0.8954,2 -1.999996,2 l -40,0 c -1.1046,0 -2,-0.8954 -2,-2 0,-1.1046 0.8954,-2 2,-2 z m 0,18.00001 40,0 c 1.104596,0 1.999996,0.8954 1.999996,2 0,1.1046 -0.8954,2 -1.999996,2 l -40,0 c -1.1046,0 -2,-0.8954 -2,-2 0,-1.1046 0.8954,-2 2,-2 z m 0,18 26,0 c 1.1046,0 2,0.8954 2,2 0,1.1046 -0.8954,2 -2,2 l -26,0 c -1.1046,0 -2,-0.8954 -2,-2 0,-1.1046 0.8954,-2 2,-2 z" fill="#000000" stroke="none" marker="none" visibility="visible" display="inline" overflow="visible" />
    </g>
</svg>
